<svg width="144" height="144" viewBox="0 0 144 144" xmlns="http://www.w3.org/2000/svg">
  <!-- Coffee cup -->
  <path d="M 40 50 Q 40 45 45 45 L 95 45 Q 100 45 100 50 L 105 100 Q 105 110 95 110 L 50 110 Q 40 110 40 100 Z" fill="#8D6E63" stroke="#5D4037" stroke-width="3"/>

  <!-- Coffee liquid -->
  <ellipse cx="72" cy="52" rx="25" ry="8" fill="#3E2723"/>

  <!-- Handle -->
  <path d="M 100 60 Q 115 65 115 75 Q 115 85 100 90" fill="none" stroke="#5D4037" stroke-width="4" stroke-linecap="round"/>

  <!-- Steam (3 wavy lines) -->
  <path d="M 55 35 Q 52 25 55 15" fill="none" stroke="#757575" stroke-width="2.5" stroke-linecap="round"/>
  <path d="M 72 35 Q 69 25 72 15" fill="none" stroke="#757575" stroke-width="2.5" stroke-linecap="round"/>
  <path d="M 89 35 Q 86 25 89 15" fill="none" stroke="#757575" stroke-width="2.5" stroke-linecap="round"/>

  <!-- Saucer -->
  <ellipse cx="72" cy="112" rx="42" ry="8" fill="#8D6E63" stroke="#5D4037" stroke-width="2"/>
</svg>
